<svg width="18" height="22" viewBox="0 0 18 22" fill="none" xmlns="http://www.w3.org/2000/svg">
<path fill-rule="evenodd" clip-rule="evenodd" d="M15.2824 10.9591H2.02462V19.4026H15.2824V10.9591ZM0 8.93452V21.4272H17.307V8.93452H0Z" fill="black"/>
<path fill-rule="evenodd" clip-rule="evenodd" d="M7.64114 17.131V13.3222H9.66577V17.131H7.64114Z" fill="black"/>
<path fill-rule="evenodd" clip-rule="evenodd" d="M6.12053 2.7234C5.50379 3.14077 5.15624 3.70047 5.15624 4.43426V9.66581H3.13162V4.43426C3.13162 2.91727 3.91147 1.77368 4.98582 1.04664C6.03221 0.338524 7.36669 0.00880783 8.64668 0.000174282C9.92614 -0.00845581 11.266 0.303082 12.3186 1.01067C13.4035 1.74 14.1754 2.89547 14.1754 4.43426V9.66581H12.1508V4.43426C12.1508 3.66144 11.7952 3.09841 11.1891 2.69093C10.5506 2.26172 9.63565 2.01817 8.66033 2.02475C7.68553 2.03133 6.76523 2.28712 6.12053 2.7234Z" fill="black"/>
</svg>
